<?xml version="1.0" encoding="UTF-8"?>
<svg id="Layer_1" data-name="Layer 1" xmlns="http://www.w3.org/2000/svg" viewBox="0 0 343.91 343.92">
  <defs>
    <style>
      .cls-1 {
        fill: #fff;
      }
    </style>
  </defs>
  <path class="cls-1" d="M171.58,343.89c-31.5,0-63,.08-94.5-.02-37.83-.12-68.2-24.89-75.74-61.58-1.06-5.17-1.32-10.4-1.32-15.66,0-63.12-.06-126.25,.03-189.37C.09,39.23,24.97,8.75,61.79,1.29,66.96,.25,72.2,.01,77.45,.01c63,0,126-.04,189,.02,38.13,.04,68.56,24.74,76.1,61.57,1.06,5.17,1.34,10.4,1.34,15.66,0,63.12,.06,126.25-.03,189.37-.05,38.06-24.89,68.48-61.75,75.96-5.42,1.1-10.9,1.3-16.41,1.3-31.37-.01-62.75,0-94.12,0ZM111.96,123.77c.03,33.12,26.79,60.13,59.62,60.16,33.51,.03,60.36-26.74,60.36-60.17,0-33.06-27.05-59.85-60.36-59.8-32.65,.05-59.65,27.13-59.62,59.81Zm62.33,68.26c-10.62,0-18.99-.1-27.36,.02-34.08,.46-61.7,24.42-67.01,58.05-1.16,7.31,2.8,13.59,9.32,14.81,7.08,1.32,13.07-3.16,14.42-10.78,4.15-23.52,21.28-38,45.15-38.09,15.49-.06,30.98-.03,46.47,.01,2.74,0,5.52,.05,8.21,.51,19.57,3.33,33.45,17.51,36.74,37.37,1.24,7.5,6.84,11.96,13.88,11.04,6.45-.84,10.81-6.92,10.01-13.96-3.26-28.73-27.48-53.77-56.15-58.07-11.94-1.79-23.95-.42-33.67-.9Z"/>
  <path class="cls-1" d="M172.08,159.94c-19.81,.06-36.06-16.08-36.12-35.87-.05-19.83,16.07-36.06,35.86-36.11,19.84-.05,36.05,16.05,36.11,35.86,.06,19.83-16.05,36.06-35.86,36.12Z"/>
</svg>