<?xml version="1.0" encoding="UTF-8"?>
<svg id="Layer_1" data-name="Layer 1" xmlns="http://www.w3.org/2000/svg" viewBox="0 0 274.63 221.8">
  <defs>
    <style>
      .cls-1 {
        fill: #fff;
      }
    </style>
  </defs>
  <path class="cls-1" d="M0,219.02C0,218.25,0,217.49,0,216.73c.37-.47,.67-1.01,1.12-1.38,4.39-3.66,7.47-8.35,10.16-13.26,2.66-4.87,4.59-10.16,5.95-15.49,1.96-7.66,3.79-15.4,4.39-23.35,.09-1.2-.18-2.13-.93-2.9-3.05-3.13-5.32-6.85-7.6-10.5-3.9-6.23-7.07-12.89-9.21-19.92-1.42-4.67-2.21-9.54-3.22-14.34-.32-1.54-.44-3.12-.66-4.68,0-4.11,0-8.21,0-12.32,.79-3.2,.76-6.52,1.78-9.71,1.21-3.78,1.76-7.71,3.12-11.52,2.02-5.64,4.65-10.93,7.63-16.06,2.14-3.69,4.47-7.33,7.2-10.59,4.13-4.93,8.5-9.66,13.34-13.96,5.37-4.77,11.05-9.12,17.1-12.91,9.24-5.78,19.04-10.48,29.33-14.11,12.41-4.38,25.16-7.29,38.24-8.69,15.1-1.62,30.17-1.38,45.21,.82,13.49,1.97,26.56,5.44,39.15,10.65,8.95,3.7,17.44,8.24,25.52,13.65,7.1,4.75,13.64,10.13,19.59,16.19,3.99,4.06,7.59,8.48,10.89,13.18,4.9,6.99,8.71,14.45,11.62,22.46,2.26,6.2,3.54,12.6,4.34,19.08,.85,6.91,.86,13.87-.83,20.75-.94,3.86-1.4,7.79-2.68,11.63-1.87,5.58-4.12,10.92-6.83,16.14-3.03,5.85-6.83,11.17-11.02,16.16-5.79,6.9-12.43,12.97-19.68,18.41-9.05,6.79-18.8,12.34-29.17,16.75-15.21,6.47-31.09,10.48-47.56,12.18-24.4,2.52-48.35,.49-71.75-7.06-2.17-.7-4.15-1.2-6.2,.34-.94,.71-2.15,1.08-3.27,1.53-11.45,4.63-23.18,8.41-35.18,11.35-11.21,2.74-22.53,4.87-33.95,6.47C3.4,222.07,1.34,221.32,0,219.02ZM73.26,120.56c1.68,.02,3.34-.16,4.96-.57,5.93-1.48,10.41-4.9,12.53-10.66,2.37-6.45-.78-12.98-6.64-16.72-8.39-5.36-21.65-3.76-27.28,5.6-1.72,2.86-2.43,9.78-.65,12.79,3.8,6.44,9.64,9.51,17.08,9.56Zm128.21,0c1.65,.05,3.52-.2,5.36-.71,7.16-1.98,11.75-7.15,12.69-13.91,.42-3.04-1.06-5.52-2.23-8.1-.94-2.07-2.66-3.52-4.42-4.73-8.51-5.84-21.4-4.41-27.53,4.38-2.59,3.71-2.78,11.24-.61,14.41,3.92,5.75,9.46,8.69,16.74,8.67Zm-63.35,.02c.92,.06,2.65-.2,4.34-.64,6.1-1.59,10.49-5.28,12.56-11.24,1.97-5.69-1.14-12.27-6.48-15.83-8.31-5.54-21.55-4.35-27.34,4.97-2.24,3.61-3.01,10.2-.81,13.58,3.97,6.11,9.63,9.12,17.74,9.15Z"/>
</svg>