<?xml version="1.0" encoding="UTF-8"?>
<svg id="Layer_1" data-name="Layer 1" xmlns="http://www.w3.org/2000/svg" viewBox="0 0 512 512">
  <defs>
    <style>
      .cls-1 {
        fill: #fff;
      }
    </style>
  </defs>
  <path class="cls-1" d="M0,263v-14c3.02-14.94,12.67-25.41,23.07-35.77,63.43-63.12,126.7-126.39,189.82-189.81,10.46-10.51,20.97-20.39,36.11-23.42h14c14.95,2.99,25.39,12.68,35.73,23.07,63.34,63.64,126.82,127.14,190.48,190.46,10.56,10.51,20.17,21.2,22.79,36.47v12c-.27,.6-.66,1.16-.79,1.79-5.07,24.5-23.01,39.35-48.11,39.14-5.28-.04-6.16,1.56-6.14,6.39,.16,49.63,.24,99.26,0,148.89-.12,23.45-16.08,44.24-38.44,51.18-3.14,.97-6.34,1.75-9.51,2.61h-92c-8.86-3.3-12-9.8-11.94-19.06,.24-38.12,.13-76.24,.09-114.36-.02-17.01-10.34-27.26-27.43-27.32-14.15-.05-28.3-.02-42.45,0-18.49,.02-28.46,9.91-28.47,28.28-.02,37.79-.14,75.58,.09,113.37,.06,9.24-3.02,15.79-11.89,19.1H103c-.42-.24-.83-.65-1.27-.71-23.88-2.96-47.44-25.15-47-57.58,.66-48.31,.11-96.63,.27-144.94,.01-4.48-1.01-5.95-5.7-5.8-17.24,.56-30.94-6.4-41.09-20.39-4.28-5.9-5.95-12.86-8.2-19.58Z"/>
</svg>