<?xml version="1.0" encoding="UTF-8"?>
<svg id="Layer_1" data-name="Layer 1" xmlns="http://www.w3.org/2000/svg" viewBox="0 0 297.37 360.74">
  <defs>
    <style>
      .cls-1 {
        fill: #fff;
      }
    </style>
  </defs>
  <path class="cls-1" d="M250.15,360.74H47.25c-.53-.21-1.04-.53-1.59-.62C18.85,355.84,.11,334.29,.08,307.12-.02,222.6-.04,138.09,.08,53.58,.13,23.51,23.41,.16,53.45,.09c63.5-.16,127-.05,190.5-.04,7.73,0,15.21,1.41,22.15,4.83,20.89,10.29,31.23,27.27,31.24,50.47,.04,83.22,.02,166.44,.01,249.66,0,1.64-.01,3.29-.07,4.93-.86,22.21-16.39,42.25-37.65,48.5-3.12,.92-6.32,1.55-9.49,2.31Zm-101.42-100.7c22.78,0,45.56,0,68.34,0,2.7,0,5.41,.09,8.1-.07,5.89-.35,10.43-4.71,11.29-10.7,.77-5.36-2.55-10.9-7.76-12.87-2.11-.8-4.33-.95-6.58-.95-48.96,.01-97.92,0-146.89,.03-1.75,0-3.54,.14-5.23,.56-4.45,1.13-7.38,4.02-8.64,8.42-2.33,8.1,3.51,15.54,12.34,15.56,25.01,.07,50.02,.02,75.03,.03Zm-.2-67.41c24.18,0,48.37,0,72.55,0,1.76,0,3.54,0,5.27-.25,6.5-.92,11.15-7.38,10.04-13.83-1.18-6.82-6.1-10.41-14.43-10.41-48.84-.01-97.68,0-146.52,0-1.52,0-3.07,.03-4.56,.26-6.47,1.01-11.02,7.54-9.84,13.98,1.21,6.57,6.07,10.22,13.87,10.23,24.54,.03,49.07,.01,73.61,.01Zm.24-91.88c-14.79,0-29.58-.09-44.37,.04-6.52,.06-11.52,5.14-11.93,11.58-.38,5.96,3.94,11.39,10.08,12.57,1.37,.26,2.8,.35,4.19,.36,27.93,.02,55.87,.01,83.8,.02,2.37,0,4.69-.18,6.9-1.1,5.13-2.15,8.27-7.79,7.34-13.12-1.06-6.04-5.78-10.28-12-10.33-14.67-.1-29.34-.03-44.01-.02Z"/>
</svg>